PathFileType	4	(X/Y/Z)	../Python\walking\Walking06\task.trc
DataRate	CameraRate	NumFrames	NumMarkers	Units	OrigDataRate	OrigDataStartFrame	OrigNumFrames
200.000000	200.000000	6	30	mm	200.000000	137	551
Frame#	Time	CLAV			STRN			RASI			RPSI			LPSI			LASI			RTH1			RTH2			RTH3			RTB1			RTB2			RTB3			RD5M			RTOE			LTH1			LTH3			LTB1			LTB2			LTB3			LTOE			LD5M			PE03			T10			PE01			LHEE			PE02			LTH2			C7			RHEE			RBAK			
		X1	Y1	Z1	X2	Y2	Z2	X3	Y3	Z3	X4	Y4	Z4	X5	Y5	Z5	X6	Y6	Z6	X7	Y7	Z7	X8	Y8	Z8	X9	Y9	Z9	X10	Y10	Z10	X11	Y11	Z11	X12	Y12	Z12	X13	Y13	Z13	X14	Y14	Z14	X15	Y15	Z15	X16	Y16	Z16	X17	Y17	Z17	X18	Y18	Z18	X19	Y19	Z19	X20	Y20	Z20	X21	Y21	Z21	X22	Y22	Z22	X23	Y23	Z23	X24	Y24	Z24	X25	Y25	Z25	X26	Y26	Z26	X27	Y27	Z27	X28	Y28	Z28	X29	Y29	Z29	X30	Y30	Z30	

138	0.6850000000000001	140.6762847900391	1436.011108398438	198.619110107422	200.0558166503907	1244.168334960938	204.3196258544923	192.0057678222657	1046.276000976563	356.8667907714845	21.3347396850586	1080.777587890625	280.2492980957032	11.62870216369629	1068.638671875	181.5973663330079	175.5958709716797	1012.132446289063	83.3417663574219	163.7711944580079	784.1840209960942	397.8482971191409	107.6317977905274	757.3530273437502	400.8475341796877	128.3766479492188	714.7982177734377	382.6485595703126	135.8456115722657	371.3762512207032	329.448455810547	94.60583496093753	326.0356750488282	331.0496215820314	130.0164337158204	293.738006591797	316.9601440429689	202.4252777099611	16.45629501342774	311.3657531738282	261.9746704101564	31.65057182312013	266.6065673828126	148.8263244628907	698.145690917969	74.0359802246094	196.1628570556642	634.3999023437502	72.58818054199222	134.1294250488282	434.4309082031252	87.92887115478518	88.44927978515628	425.7080688476565	105.7346115112305	94.56147003173831	365.6824340820314	90.05041503906253	-11.37231063842774	86.21355438232425	131.067367553711	-49.10129547119143	110.9045104980469	95.19303894042972	7.642477989196781	1058.821044921875	208.9538574218751	-26.85205459594728	1262.564575195313	207.9471588134767	22.44257354736329	1121.598510742188	224.3175811767579	-134.1872558593751	244.9374847412111	169.9284057617188	14.35744667053223	1065.645141601563	259.3101196289064	145.9738464355469	656.9788818359377	101.4608306884766	21.79464530944825	1522.155395507813	192.8642425537111	45.25749588012697	27.37876701354982	228.6042938232423	17.34007835388184	1436.77783203125	369.0789184570314	
139	0.6900000000000001	147.3489990234376	1436.35888671875	198.5792236328126	206.3378143310548	1244.437255859375	204.7535858154298	197.4523925781251	1046.254638671875	357.8435058593751	27.11999893188478	1080.886474609375	279.8833312988282	17.80330276489259	1069.269775390625	181.1285247802735	182.2382965087891	1013.202331542969	84.22302246093753	168.1407623291016	783.8787231445317	397.8769531250002	111.8276977539063	757.3471679687502	400.579284667969	132.4179687500001	714.7099609375002	382.5061645507814	138.0262756347657	371.2645568847657	329.2402954101564	96.43204498291021	326.2520446777345	330.6389465332032	131.6607666015626	293.6647338867189	316.7000427246095	202.4171295166017	16.43193054199219	311.403289794922	262.1213989257814	31.57213783264162	266.6863098144532	158.7892303466797	699.7823486328127	73.56516265869143	206.9349670410157	636.7212524414065	72.19097900390628	147.9817962646485	434.5137023925784	87.57778930664065	102.327133178711	425.1142272949221	105.2514572143555	109.6837844848633	365.070770263672	90.13270568847659	10.7223072052002	84.47363281250003	131.8909149169922	-27.73361778259279	107.7889709472657	95.81009674072268	13.6936902999878	1059.330078125	208.4562530517579	-20.50684356689454	1263.281372070313	208.5042114257814	28.52425003051759	1122.005249023438	224.2208862304689	-117.1813735961915	239.4620666503907	169.6166076660157	20.25584411621094	1065.86181640625	258.877410888672	156.0859832763672	658.3377685546877	100.5606231689454	28.653377532959	1522.678588867188	192.7974395751954	45.35826110839845	27.55633926391603	228.4286193847657	24.37025260925294	1437.737426757813	369.3194580078126	
140	0.6950000000000001	154.0204315185547	1436.662353515625	198.5507812500001	212.6138458251954	1244.663452148438	205.1984405517579	202.8956909179689	1046.215698242188	358.7835388183595	32.89504241943361	1080.941772460938	279.4844360351564	23.96948242187501	1069.83349609375	180.6333465576172	188.867172241211	1014.218139648438	85.08655548095706	172.5175476074219	783.555297851563	397.9107666015627	116.0320587158204	757.3362426757815	400.3241271972659	136.4453887939454	714.6098632812502	382.3798217773439	140.2293548583985	371.1448364257814	329.0292968750001	98.28647613525396	326.4560852050782	330.2464599609376	133.3307342529297	293.585418701172	316.4372863769532	202.4100189208986	16.40776824951173	311.4392395019532	262.2625122070314	31.49611473083498	266.7673950195314	168.7842712402344	701.4509277343752	72.99558258056643	217.6866455078126	639.0623168945315	71.75604248046878	161.7698822021485	434.4039001464846	87.17401123046878	116.1586456298829	424.301696777344	104.7139053344727	124.8355712890626	364.268524169922	90.21742248535159	32.98747634887697	82.61460876464847	132.697982788086	-6.151500225067142	104.5294647216797	96.41703796386724	19.73717498779298	1059.777587890625	207.9297027587892	-14.1682939529419	1263.95947265625	209.0412750244142	34.5961151123047	1122.351318359375	224.0883178710939	-99.95153045654303	233.6722259521486	169.3272552490235	26.14644813537599	1066.022705078125	258.4132080078126	166.1656341552735	659.7189941406252	99.53211212158209	35.51253890991212	1523.157104492188	192.7314605712892	45.45889282226564	27.73778343200685	228.2570037841798	31.38704681396486	1438.656982421875	369.553924560547	
141	0.7000000000000001	160.6915893554688	1436.920532226563	198.5323791503907	218.8854522705079	1244.845581054688	205.6496124267579	208.3430938720704	1046.153930664063	359.6781311035157	38.66629791259767	1080.9482421875	279.0608215332032	30.13020706176759	1070.330932617188	180.1207122802735	195.4806365966798	1015.177612304688	85.92182922363284	176.9011230468751	783.211547851563	397.9466857910159	120.2449188232422	757.3179321289065	400.0816650390627	140.4606018066407	714.4959106445315	382.2659912109376	142.4576568603516	371.0188598632814	328.8053588867189	100.1735382080079	326.6474914550782	329.8697509765626	135.0295410156251	293.5015563964845	316.1647338867189	202.4046020507814	16.38524246215821	311.4719543457032	262.3992614746095	31.42221832275392	266.8474731445314	178.8003082275391	703.143005371094	72.33127593994143	228.4101867675782	641.412780761719	71.29154205322268	175.4964752197266	434.1062927246096	86.73075866699222	129.9493865966797	423.2642822265627	104.1243362426758	140.0231628417969	363.2779541015626	90.30756378173831	55.41127014160159	80.65522766113284	133.4672393798829	15.63678455352784	101.1513977050782	96.99895477294928	25.77668571472169	1060.165161132813	207.3828887939454	-7.83501768112183	1264.597045898438	209.5571746826173	40.66120910644533	1122.638793945313	223.9258117675782	-82.48207092285159	227.5874786376954	169.067611694336	32.03378295898439	1066.130981445313	257.9256896972657	176.2089843750001	661.1157836914065	98.38385009765631	42.37275695800783	1523.58935546875	192.6663513183595	45.55921173095705	27.92337226867677	228.0880432128907	38.39155197143556	1439.533447265625	369.7815551757814	
142	0.705	167.3634185791016	1437.132080078125	198.5225982666017	225.1542053222657	1244.982421875	206.1025543212892	213.8015136718751	1046.064331054688	360.5195617675782	44.43994140625001	1080.91015625	278.6203918457032	36.28855133056642	1070.763671875	179.5989837646485	202.0776214599611	1016.078735351563	86.71931457519534	181.2914581298829	782.8459472656255	397.9814453125002	124.4666900634766	757.2899169921877	399.8507080078127	144.4661712646485	714.3658447265627	382.1608276367189	144.7126617431641	370.8878784179689	328.5600891113282	102.0959472656251	326.8259277343751	329.5060424804689	136.7588500976563	293.4142456054689	315.8764648437501	202.4014739990236	16.36572456359864	311.4999389648439	262.5330200195314	31.35021781921388	266.9244384765626	188.8249511718751	704.8494873046877	71.57869720458987	239.0971984863282	643.7612304687502	70.80609893798831	189.1632385253907	433.6269836425784	86.26116943359378	143.7016906738282	421.9985656738284	103.484359741211	155.2488555908204	362.1038818359376	90.40771484375003	77.98347473144534	78.61594390869143	134.1780853271485	37.62178039550783	97.68035125732428	97.54164886474615	31.81603050231935	1060.494262695313	206.8240661621095	-1.505662441253663	1265.1923828125	210.0509490966798	46.72255325317384	1122.8701171875	223.7391967773439	-64.75811767578128	221.2290649414064	168.8441467285157	37.92225646972658	1066.190185546875	257.4226989746095	186.2121276855469	662.520935058594	97.12728881835943	49.23459243774417	1523.974243164063	192.6020812988282	45.65914154052736	28.1134548187256	227.9202728271486	45.38489151000978	1440.36376953125	370.0018005371095	
143	0.71	174.0368194580079	1437.296142578125	198.5199279785157	231.4217071533204	1245.073120117188	206.5527343750001	219.2772674560548	1045.942138671875	361.3013305664064	50.22178649902347	1080.831909179688	278.1705627441407	42.44764709472658	1071.133544921875	179.0758514404297	208.6578826904298	1016.919860839844	87.47062683105472	185.688949584961	782.4569702148442	398.0117492675784	128.6981658935547	757.249694824219	399.6296081542971	148.4654235839844	714.2175903320315	382.0603942871095	146.9944305419922	370.7526855468751	328.2869873046876	104.0545043945313	326.9913940429689	329.1523742675782	138.5184631347657	293.3242492675782	315.5679321289064	202.4011688232423	16.3504981994629	311.5218505859376	262.6651306152345	31.2799701690674	266.9963684082032	198.8448028564454	706.5608520507815	70.746452331543	249.7385406494142	646.0957641601565	70.30822753906253	202.7701568603517	432.9732971191409	85.77796936035159	157.4144287109376	420.5047607421877	102.7957839965821	170.510238647461	360.7543945312501	90.52286529541018	100.6957092285157	76.51874542236331	134.8107910156251	59.79307937622073	94.14186859130862	98.03171539306646	37.85898971557619	1060.766967773438	206.2608489990236	4.821089267730715	1265.743896484375	210.5218353271486	52.78310775756839	1123.047973632813	223.5340118408204	-46.76597213745119	214.6197662353517	168.6622619628907	43.81609344482423	1066.20361328125	256.9115295410157	196.1711273193361	663.9267578125002	95.77651977539065	56.09852981567386	1524.310546875	192.5386352539064	45.75867843627931	28.30838584899904	227.7523345947267	52.36818313598636	1441.145263671875	370.2141113281251	
